<?xml version="1.0" standalone="no"?>
<!DOCTYPE svg PUBLIC "-//W3C//DTD SVG 20010904//EN"
 "http://www.w3.org/TR/2001/REC-SVG-20010904/DTD/svg10.dtd">
<svg version="1.0" xmlns="http://www.w3.org/2000/svg"
 width="260.000000pt" height="260.000000pt" viewBox="0 0 260.000000 260.000000"
 preserveAspectRatio="xMidYMid meet">
<metadata>
Created by potrace 1.14, written by Peter Selinger 2001-2017
</metadata>
<g transform="translate(0.000000,260.000000) scale(0.100000,-0.100000)"
fill="#000000" stroke="none">
<path d="M289 2581 c-109 -35 -199 -117 -253 -230 l-31 -66 -3 -964 c-2 -861
-1 -970 14 -1020 32 -114 117 -210 232 -264 l67 -32 964 -3 c860 -2 971 -1
1020 14 114 32 210 117 264 232 l32 67 3 964 c2 860 1 971 -14 1020 -32 114
-117 210 -232 264 l-67 32 -970 2 c-910 2 -973 1 -1026 -16z m1058 -583 c12
-14 83 -203 83 -218 0 -6 -40 -10 -95 -10 l-95 0 -33 53 c-79 124 -100 169
-86 178 22 14 215 11 226 -3z m128 -328 c9 -14 385 -1062 385 -1072 0 -4 -60
-8 -134 -8 l-133 0 -33 93 c-17 50 -37 98 -42 105 -8 9 -58 12 -207 10 l-196
-3 -35 -100 -36 -100 -137 -3 -136 -3 18 53 c11 29 92 256 181 503 89 248 169
469 177 493 l15 42 153 0 c93 0 156 -4 160 -10z"/>
<path d="M1300 1338 c-24 -69 -110 -321 -110 -324 0 -2 56 -4 125 -4 93 0 125
3 125 13 1 20 -114 347 -121 347 -4 0 -12 -15 -19 -32z"/>
</g>
</svg>
